<svg version="1.1" xmlns="http://www.w3.org/2000/svg" xmlns:xlink="http://www.w3.org/1999/xlink" width="963" height="741"><defs/><g><g/><g/><g/><g/><g/><g/><g/><g/><g/><g/><g/><g><rect fill="white" stroke="none" x="0" y="0" width="963" height="741"/></g><g/><g><path fill="none" stroke="black" paint-order="fill stroke markers" d=" M 44.139038994625 59.284222437999986 L 44.139038994625 741.844409558" stroke-miterlimit="10" stroke-width="1.4659797833333332" stroke-dasharray="13.532121076923076,5.863919133333333"/><path fill="none" stroke="black" paint-order="fill stroke markers" d=" M 314.49033346754163 59.284222437999986 L 314.49033346754163 741.844409558" stroke-miterlimit="10" stroke-width="1.4659797833333332" stroke-dasharray="13.532121076923076,5.863919133333333"/><path fill="none" stroke="black" paint-order="fill stroke markers" d=" M 605.6936787217082 59.284222437999986 L 605.6936787217082 741.844409558" stroke-miterlimit="10" stroke-width="1.4659797833333332" stroke-dasharray="13.532121076923076,5.863919133333333"/><path fill="none" stroke="black" paint-order="fill stroke markers" d=" M 916.9067896008748 59.284222437999986 L 916.9067896008748 741.844409558" stroke-miterlimit="10" stroke-width="1.4659797833333332" stroke-dasharray="13.532121076923076,5.863919133333333"/></g><g><path fill="none" stroke="none"/><g><path fill="white" stroke="black" paint-order="fill stroke markers" d=" M 8.795878699999996 11.786477457999997 L 79.48219928924999 11.786477457999997 L 79.48219928924999 59.284222437999986 L 8.795878699999996 59.284222437999986 L 8.795878699999996 11.786477457999997 Z" stroke-miterlimit="10" stroke-width="2.814681184" stroke-dasharray=""/></g><g><g/><text fill="black" stroke="none" font-family="sans-serif" font-size="11pt" font-style="normal" font-weight="normal" text-decoration="normal" x="27.882935478999997" y="41.692465037999995" text-anchor="start" dominant-baseline="alphabetic" xml:space="preserve">Alice</text></g><path fill="none" stroke="none"/><g><path fill="white" stroke="black" paint-order="fill stroke markers" d=" M 282.0585501260416 11.786477457999997 L 346.9221168090416 11.786477457999997 L 346.9221168090416 59.284222437999986 L 282.0585501260416 59.284222437999986 L 282.0585501260416 11.786477457999997 Z" stroke-miterlimit="10" stroke-width="2.814681184" stroke-dasharray=""/></g><g><g/><text fill="black" stroke="none" font-family="sans-serif" font-size="11pt" font-style="normal" font-weight="normal" text-decoration="normal" x="301.14560690504163" y="41.692465037999995" text-anchor="start" dominant-baseline="alphabetic" xml:space="preserve">Bob</text></g><path fill="none" stroke="none"/><g><path fill="white" stroke="black" paint-order="fill stroke markers" d=" M 560.7631160833332 11.786477457999997 L 650.6242413600833 11.786477457999997 L 650.6242413600833 59.284222437999986 L 560.7631160833332 59.284222437999986 L 560.7631160833332 11.786477457999997 Z" stroke-miterlimit="10" stroke-width="2.814681184" stroke-dasharray=""/></g><g><g/><text fill="black" stroke="none" font-family="sans-serif" font-size="11pt" font-style="normal" font-weight="normal" text-decoration="normal" x="579.8501728623332" y="41.692465037999995" text-anchor="start" dominant-baseline="alphabetic" xml:space="preserve">Charles</text></g><path fill="none" stroke="none"/><g><path fill="white" stroke="black" paint-order="fill stroke markers" d=" M 878.6449281343748 11.786477457999997 L 955.1686510673749 11.786477457999997 L 955.1686510673749 59.284222437999986 L 878.6449281343748 59.284222437999986 L 878.6449281343748 11.786477457999997 Z" stroke-miterlimit="10" stroke-width="2.814681184" stroke-dasharray=""/></g><g><g/><text fill="black" stroke="none" font-family="sans-serif" font-size="11pt" font-style="normal" font-weight="normal" text-decoration="normal" x="897.7319849133748" y="41.692465037999995" text-anchor="start" dominant-baseline="alphabetic" xml:space="preserve">David</text></g></g><g><g><g><rect fill="white" stroke="none" x="64.9559519179583" y="94.46773723799998" width="228.71746862625" height="22.86928462"/></g><text fill="black" stroke="none" font-family="sans-serif" font-size="11pt" font-style="normal" font-weight="normal" text-decoration="normal" x="67.5947155279583" y="110.30031889799997" text-anchor="start" dominant-baseline="alphabetic" xml:space="preserve">{na, Alice,Charles,David}pk(Bob))</text></g><g><path fill="none" stroke="black" paint-order="fill stroke markers" d=" M 44.139038994625 117.33702185799999 L 300.0064532082083 117.33702185799999" stroke-miterlimit="10" stroke-width="1.4659797833333332" stroke-dasharray=""/><g transform="translate(314.49033346754163,117.33702185799999) translate(-314.49033346754163,-117.33702185799999)"><path fill="black" stroke="none" paint-order="stroke fill markers" d=" M 299.8305356342083 110.00712294133332 L 314.49033346754163 117.33702185799999 L 299.8305356342083 124.66692077466665 Z"/></g></g><g><g><rect fill="white" stroke="none" x="335.3072463908749" y="143.724657958" width="249.5695194075" height="22.86928462"/></g><text fill="black" stroke="none" font-family="sans-serif" font-size="11pt" font-style="normal" font-weight="normal" text-decoration="normal" x="337.94601000087494" y="159.557239618" text-anchor="start" dominant-baseline="alphabetic" xml:space="preserve">{na,nb, Alice,Bob,David}pk(Charles))</text></g><g><path fill="none" stroke="black" paint-order="fill stroke markers" d=" M 314.49033346754163 166.593942578 L 591.2097984623749 166.593942578" stroke-miterlimit="10" stroke-width="1.4659797833333332" stroke-dasharray=""/><g transform="translate(605.6936787217082,166.593942578) translate(-605.6936787217082,-166.593942578)"><path fill="black" stroke="none" paint-order="stroke fill markers" d=" M 591.0338808883749 159.26404366133332 L 605.6936787217082 166.593942578 L 591.0338808883749 173.92384149466668 Z"/></g></g><g><g><rect fill="white" stroke="none" x="626.5105916450416" y="192.98157867799998" width="269.5792850325" height="22.86928462"/></g><text fill="black" stroke="none" font-family="sans-serif" font-size="11pt" font-style="normal" font-weight="normal" text-decoration="normal" x="629.1493552550415" y="208.814160338" text-anchor="start" dominant-baseline="alphabetic" xml:space="preserve">{na,nb,nc, Alice,Bob,Charles}pk(David))</text></g><g><path fill="none" stroke="black" paint-order="fill stroke markers" d=" M 605.6936787217082 215.85086329799998 L 902.4229093415415 215.85086329799998" stroke-miterlimit="10" stroke-width="1.4659797833333332" stroke-dasharray=""/><g transform="translate(916.9067896008748,215.85086329799998) translate(-916.9067896008748,-215.85086329799998)"><path fill="black" stroke="none" paint-order="stroke fill markers" d=" M 902.2469917675415 208.5209643813333 L 916.9067896008748 215.85086329799998 L 902.2469917675415 223.18076221466666 Z"/></g></g><g><g><rect fill="white" stroke="none" x="335.3072463908749" y="242.23849939799996" width="290.43133581375" height="22.86928462"/></g><text fill="black" stroke="none" font-family="sans-serif" font-size="11pt" font-style="normal" font-weight="normal" text-decoration="normal" x="337.94601000087494" y="258.07108105799995" text-anchor="start" dominant-baseline="alphabetic" xml:space="preserve">{na,nb,nc,nd, Bob,Charles,David}pk(Alice))</text></g><g><path fill="none" stroke="black" paint-order="fill stroke markers" d=" M 916.9067896008748 265.10778401799996 L 58.62291925395833 265.10778401799996" stroke-miterlimit="10" stroke-width="1.4659797833333332" stroke-dasharray=""/><g transform="translate(44.139038994625,265.10778401799996) translate(-44.139038994625,-265.10778401799996)"><path fill="black" stroke="none" paint-order="stroke fill markers" d=" M 58.798836827958326 257.7778851013333 L 44.139038994625 265.10778401799996 L 58.798836827958326 272.4376829346666 Z"/></g></g><path fill="white" stroke="black" paint-order="fill stroke markers" d=" M 44.139038994625 311.72594112799993 L 52.934917694625 311.72594112799993 M 52.934917694625 291.49542011799997 L 193.08777237962502 291.49542011799997 L 208.920354039625 307.328001778 L 208.920354039625 331.95646213799995 L 52.934917694625 331.95646213799995 L 52.934917694625 291.49542011799997 M 193.08777237962502 291.49542011799997 L 193.08777237962502 307.328001778 L 208.920354039625 307.328001778" stroke-miterlimit="10" stroke-width="1.4659797833333332" stroke-dasharray=""/><g><text fill="black" stroke="none" font-family="sans-serif" font-size="11pt" font-style="normal" font-weight="normal" text-decoration="normal" x="77.56337805462499" y="316.12388047799993" text-anchor="start" dominant-baseline="alphabetic" xml:space="preserve">Resolve desafio</text></g><g><g><rect fill="white" stroke="none" x="114.1344187148333" y="358.34409823799996" width="130.3605350325" height="22.86928462"/></g><text fill="black" stroke="none" font-family="sans-serif" font-size="11pt" font-style="normal" font-weight="normal" text-decoration="normal" x="116.7731823248333" y="374.176679898" text-anchor="start" dominant-baseline="alphabetic" xml:space="preserve">{nb,nc,nd}pk(Bob))</text></g><g><path fill="none" stroke="black" paint-order="fill stroke markers" d=" M 44.139038994625 381.21338285799993 L 300.0064532082083 381.21338285799993" stroke-miterlimit="10" stroke-width="1.4659797833333332" stroke-dasharray=""/><g transform="translate(314.49033346754163,381.21338285799993) translate(-314.49033346754163,-381.21338285799993)"><path fill="black" stroke="none" paint-order="stroke fill markers" d=" M 299.8305356342083 373.8834839413333 L 314.49033346754163 381.21338285799993 L 299.8305356342083 388.5432817746666 Z"/></g></g><path fill="white" stroke="black" paint-order="fill stroke markers" d=" M 314.49033346754163 427.8315399679999 L 323.28621216754163 427.8315399679999 M 323.28621216754163 407.60101895799994 L 463.43906685254166 407.60101895799994 L 479.2716485125417 423.43360061799996 L 479.2716485125417 448.0620609779999 L 323.28621216754163 448.0620609779999 L 323.28621216754163 407.60101895799994 M 463.43906685254166 407.60101895799994 L 463.43906685254166 423.43360061799996 L 479.2716485125417 423.43360061799996" stroke-miterlimit="10" stroke-width="1.4659797833333332" stroke-dasharray=""/><g><text fill="black" stroke="none" font-family="sans-serif" font-size="11pt" font-style="normal" font-weight="normal" text-decoration="normal" x="347.91467252754165" y="432.2294793179999" text-anchor="start" dominant-baseline="alphabetic" xml:space="preserve">Resolve desafio</text></g><g><g><rect fill="white" stroke="none" x="392.8389846721249" y="474.44969707799993" width="134.506042845" height="22.86928462"/></g><text fill="black" stroke="none" font-family="sans-serif" font-size="11pt" font-style="normal" font-weight="normal" text-decoration="normal" x="395.47774828212494" y="490.28227873799995" text-anchor="start" dominant-baseline="alphabetic" xml:space="preserve">{nc,nd}pk(Charles))</text></g><g><path fill="none" stroke="black" paint-order="fill stroke markers" d=" M 314.49033346754163 497.3189816979999 L 591.2097984623749 497.3189816979999" stroke-miterlimit="10" stroke-width="1.4659797833333332" stroke-dasharray=""/><g transform="translate(605.6936787217082,497.3189816979999) translate(-605.6936787217082,-497.3189816979999)"><path fill="black" stroke="none" paint-order="stroke fill markers" d=" M 591.0338808883749 489.98908278133325 L 605.6936787217082 497.3189816979999 L 591.0338808883749 504.64888061466655 Z"/></g></g><path fill="white" stroke="black" paint-order="fill stroke markers" d=" M 605.6936787217082 543.937138808 L 614.4895574217082 543.937138808 M 614.4895574217082 523.7066177979999 L 754.6424121067083 523.7066177979999 L 770.4749937667083 539.5391994579999 L 770.4749937667083 564.167659818 L 614.4895574217082 564.167659818 L 614.4895574217082 523.7066177979999 M 754.6424121067083 523.7066177979999 L 754.6424121067083 539.5391994579999 L 770.4749937667083 539.5391994579999" stroke-miterlimit="10" stroke-width="1.4659797833333332" stroke-dasharray=""/><g><text fill="black" stroke="none" font-family="sans-serif" font-size="11pt" font-style="normal" font-weight="normal" text-decoration="normal" x="639.1180177817082" y="548.335078158" text-anchor="start" dominant-baseline="alphabetic" xml:space="preserve">Resolve desafio</text></g><g><g><rect fill="white" stroke="none" x="710.7207967231666" y="590.555295918" width="101.15887487625" height="22.86928462"/></g><text fill="black" stroke="none" font-family="sans-serif" font-size="11pt" font-style="normal" font-weight="normal" text-decoration="normal" x="713.3595603331665" y="606.3878775779999" text-anchor="start" dominant-baseline="alphabetic" xml:space="preserve">{nd}pk(David))</text></g><g><path fill="none" stroke="black" paint-order="fill stroke markers" d=" M 605.6936787217082 613.424580538 L 902.4229093415415 613.424580538" stroke-miterlimit="10" stroke-width="1.4659797833333332" stroke-dasharray=""/><g transform="translate(916.9067896008748,613.424580538) translate(-916.9067896008748,-613.424580538)"><path fill="black" stroke="none" paint-order="stroke fill markers" d=" M 902.2469917675415 606.0946816213333 L 916.9067896008748 613.424580538 L 902.2469917675415 620.7544794546667 Z"/></g></g><path fill="white" stroke="black" paint-order="fill stroke markers" d=" M 916.9067896008748 660.0427376480001 L 908.1109109008748 660.0427376480001 M 752.1254745558748 639.812216638 L 892.2783292408749 639.812216638 L 908.1109109008748 655.644798298 L 908.1109109008748 680.273258658 L 752.1254745558748 680.273258658 L 752.1254745558748 639.812216638 M 892.2783292408749 639.812216638 L 892.2783292408749 655.644798298 L 908.1109109008748 655.644798298" stroke-miterlimit="10" stroke-width="1.4659797833333332" stroke-dasharray=""/><g><text fill="black" stroke="none" font-family="sans-serif" font-size="11pt" font-style="normal" font-weight="normal" text-decoration="normal" x="776.7539349158748" y="664.4406769980001" text-anchor="start" dominant-baseline="alphabetic" xml:space="preserve">Resolve desafio</text></g></g><g/><g/><g/><g/></g></svg>