<svg version="1.1" xmlns="http://www.w3.org/2000/svg" xmlns:xlink="http://www.w3.org/1999/xlink" width="1174" height="683"><defs/><g><g/><g/><g/><g/><g/><g/><g/><g/><g/><g/><g/><g><rect fill="white" stroke="none" x="0" y="0" width="1174" height="683"/></g><g/><g><path fill="none" stroke="black" paint-order="fill stroke markers" d=" M 44.139038994625 59.284222437999986 L 44.139038994625 683.7916101380001" stroke-miterlimit="10" stroke-width="1.4659797833333332" stroke-dasharray="13.532121076923076,5.863919133333333"/><path fill="none" stroke="black" paint-order="fill stroke markers" d=" M 373.67002096754163 59.284222437999986 L 373.67002096754163 683.7916101380001" stroke-miterlimit="10" stroke-width="1.4659797833333332" stroke-dasharray="13.532121076923076,5.863919133333333"/><path fill="none" stroke="black" paint-order="fill stroke markers" d=" M 676.5188740342082 59.284222437999986 L 676.5188740342082 683.7916101380001" stroke-miterlimit="10" stroke-width="1.4659797833333332" stroke-dasharray="13.532121076923076,5.863919133333333"/><path fill="none" stroke="black" paint-order="fill stroke markers" d=" M 1005.2222192883748 59.284222437999986 L 1005.2222192883748 683.7916101380001" stroke-miterlimit="10" stroke-width="1.4659797833333332" stroke-dasharray="13.532121076923076,5.863919133333333"/></g><g><path fill="none" stroke="none"/><g><path fill="white" stroke="black" paint-order="fill stroke markers" d=" M 8.795878699999996 11.786477457999997 L 79.48219928924999 11.786477457999997 L 79.48219928924999 59.284222437999986 L 8.795878699999996 59.284222437999986 L 8.795878699999996 11.786477457999997 Z" stroke-miterlimit="10" stroke-width="2.814681184" stroke-dasharray=""/></g><g><g/><text fill="black" stroke="none" font-family="sans-serif" font-size="11pt" font-style="normal" font-weight="normal" text-decoration="normal" x="27.882935478999997" y="41.692465037999995" text-anchor="start" dominant-baseline="alphabetic" xml:space="preserve">Alice</text></g><path fill="none" stroke="none"/><g><path fill="white" stroke="black" paint-order="fill stroke markers" d=" M 341.2382376260416 11.786477457999997 L 406.1018043090416 11.786477457999997 L 406.1018043090416 59.284222437999986 L 341.2382376260416 59.284222437999986 L 341.2382376260416 11.786477457999997 Z" stroke-miterlimit="10" stroke-width="2.814681184" stroke-dasharray=""/></g><g><g/><text fill="black" stroke="none" font-family="sans-serif" font-size="11pt" font-style="normal" font-weight="normal" text-decoration="normal" x="360.32529440504163" y="41.692465037999995" text-anchor="start" dominant-baseline="alphabetic" xml:space="preserve">Bob</text></g><path fill="none" stroke="none"/><g><path fill="white" stroke="black" paint-order="fill stroke markers" d=" M 631.5883113958332 11.786477457999997 L 721.4494366725833 11.786477457999997 L 721.4494366725833 59.284222437999986 L 631.5883113958332 59.284222437999986 L 631.5883113958332 11.786477457999997 Z" stroke-miterlimit="10" stroke-width="2.814681184" stroke-dasharray=""/></g><g><g/><text fill="black" stroke="none" font-family="sans-serif" font-size="11pt" font-style="normal" font-weight="normal" text-decoration="normal" x="650.6753681748332" y="41.692465037999995" text-anchor="start" dominant-baseline="alphabetic" xml:space="preserve">Charles</text></g><path fill="none" stroke="none"/><g><path fill="white" stroke="black" paint-order="fill stroke markers" d=" M 966.9603578218748 11.786477457999997 L 1043.4840807548749 11.786477457999997 L 1043.4840807548749 59.284222437999986 L 966.9603578218748 59.284222437999986 L 966.9603578218748 11.786477457999997 Z" stroke-miterlimit="10" stroke-width="2.814681184" stroke-dasharray=""/></g><g><g/><text fill="black" stroke="none" font-family="sans-serif" font-size="11pt" font-style="normal" font-weight="normal" text-decoration="normal" x="986.0474146008748" y="41.692465037999995" text-anchor="start" dominant-baseline="alphabetic" xml:space="preserve">David</text></g></g><g><g><g><rect fill="white" stroke="none" x="92.4657175429583" y="89.19021001799999" width="232.87762487625" height="22.86928462"/></g><text fill="black" stroke="none" font-family="sans-serif" font-size="11pt" font-style="normal" font-weight="normal" text-decoration="normal" x="95.1044811529583" y="105.02279167799998" text-anchor="start" dominant-baseline="alphabetic" xml:space="preserve">{nA, Bob, Charles, David}sk(Alice)</text></g><g><path fill="none" stroke="black" paint-order="fill stroke markers" d=" M 44.139038994625 112.05949463799999 L 359.1861407082083 112.05949463799999" stroke-miterlimit="10" stroke-width="1.4659797833333332" stroke-dasharray=""/><g transform="translate(373.67002096754163,112.05949463799999) translate(-373.67002096754163,-112.05949463799999)"><path fill="black" stroke="none" paint-order="stroke fill markers" d=" M 359.0102231342083 104.72959572133333 L 373.67002096754163 112.05949463799999 L 359.0102231342083 119.38939355466665 Z"/></g></g><g><g><rect fill="white" stroke="none" x="395.3145706096249" y="133.169603518" width="259.5597537825" height="22.86928462"/></g><text fill="black" stroke="none" font-family="sans-serif" font-size="11pt" font-style="normal" font-weight="normal" text-decoration="normal" x="397.95333421962494" y="149.00218517800002" text-anchor="start" dominant-baseline="alphabetic" xml:space="preserve">{nA, nB, Alice, Charles, David}sk(Bob)</text></g><g><path fill="none" stroke="black" paint-order="fill stroke markers" d=" M 373.67002096754163 156.038888138 L 662.0349937748749 156.038888138" stroke-miterlimit="10" stroke-width="1.4659797833333332" stroke-dasharray=""/><g transform="translate(676.5188740342082,156.038888138) translate(-676.5188740342082,-156.038888138)"><path fill="black" stroke="none" paint-order="stroke fill markers" d=" M 661.8590762008749 148.70898922133333 L 676.5188740342082 156.038888138 L 661.8590762008749 163.36878705466668 Z"/></g></g><g><g><rect fill="white" stroke="none" x="697.3357869575416" y="177.14899701800002" width="287.0695194075" height="22.86928462"/></g><text fill="black" stroke="none" font-family="sans-serif" font-size="11pt" font-style="normal" font-weight="normal" text-decoration="normal" x="699.9745505675415" y="192.98157867800003" text-anchor="start" dominant-baseline="alphabetic" xml:space="preserve">{nA, nB, nC, Alice, Bob, David}sk(Charles)</text></g><g><path fill="none" stroke="black" paint-order="fill stroke markers" d=" M 676.5188740342082 200.01828163800002 L 990.7383390290415 200.01828163800002" stroke-miterlimit="10" stroke-width="1.4659797833333332" stroke-dasharray=""/><g transform="translate(1005.2222192883748,200.01828163800002) translate(-1005.2222192883748,-200.01828163800002)"><path fill="black" stroke="none" paint-order="stroke fill markers" d=" M 990.5624214550415 192.68838272133334 L 1005.2222192883748 200.01828163800002 L 990.5624214550415 207.3481805546667 Z"/></g></g><g><g><rect fill="white" stroke="none" x="367.3909866252499" y="221.12839051800003" width="314.5792850325" height="22.86928462"/></g><text fill="black" stroke="none" font-family="sans-serif" font-size="11pt" font-style="normal" font-weight="normal" text-decoration="normal" x="370.02975023524994" y="236.96097217800005" text-anchor="start" dominant-baseline="alphabetic" xml:space="preserve">{nA, nB, nC, nD, Alice, Bob, Charles}sk(David)</text></g><g><path fill="none" stroke="black" paint-order="fill stroke markers" d=" M 1005.2222192883748 243.99767513800003 L 58.62291925395833 243.99767513800003" stroke-miterlimit="10" stroke-width="1.4659797833333332" stroke-dasharray=""/><g transform="translate(44.139038994625,243.99767513800003) translate(-44.139038994625,-243.99767513800003)"><path fill="black" stroke="none" paint-order="stroke fill markers" d=" M 58.798836827958326 236.66777622133336 L 44.139038994625 243.99767513800003 L 58.798836827958326 251.3275740546667 Z"/></g></g><path fill="white" stroke="black" paint-order="fill stroke markers" d=" M 44.139038994625 285.338305028 L 52.934917694625 285.338305028 M 52.934917694625 265.107784018 L 188.92029191087502 265.107784018 L 204.752873570875 280.94036567800003 L 204.752873570875 305.568826038 L 52.934917694625 305.568826038 L 52.934917694625 265.107784018 M 188.92029191087502 265.107784018 L 188.92029191087502 280.94036567800003 L 204.752873570875 280.94036567800003" stroke-miterlimit="10" stroke-width="1.4659797833333332" stroke-dasharray=""/><g><text fill="black" stroke="none" font-family="sans-serif" font-size="11pt" font-style="normal" font-weight="normal" text-decoration="normal" x="77.56337805462499" y="289.736244378" text-anchor="start" dominant-baseline="alphabetic" xml:space="preserve">Conclui desafio</text></g><g><g><rect fill="white" stroke="none" x="64.9559519179583" y="326.67893491800004" width="287.89715612625" height="22.86928462"/></g><text fill="black" stroke="none" font-family="sans-serif" font-size="11pt" font-style="normal" font-weight="normal" text-decoration="normal" x="67.5947155279583" y="342.51151657800006" text-anchor="start" dominant-baseline="alphabetic" xml:space="preserve">{nB, nC, nD, Bob, Charles, David}sk(Alice)</text></g><g><path fill="none" stroke="black" paint-order="fill stroke markers" d=" M 44.139038994625 349.548219538 L 359.1861407082083 349.548219538" stroke-miterlimit="10" stroke-width="1.4659797833333332" stroke-dasharray=""/><g transform="translate(373.67002096754163,349.548219538) translate(-373.67002096754163,-349.548219538)"><path fill="black" stroke="none" paint-order="stroke fill markers" d=" M 359.0102231342083 342.21832062133336 L 373.67002096754163 349.548219538 L 359.0102231342083 356.87811845466666 Z"/></g></g><path fill="white" stroke="black" paint-order="fill stroke markers" d=" M 373.67002096754163 390.888849428 L 382.46589966754163 390.888849428 M 382.46589966754163 370.65832841800005 L 518.4512738837917 370.65832841800005 L 534.2838555437917 386.49091007800007 L 534.2838555437917 411.11937043800003 L 382.46589966754163 411.11937043800003 L 382.46589966754163 370.65832841800005 M 518.4512738837917 370.65832841800005 L 518.4512738837917 386.49091007800007 L 534.2838555437917 386.49091007800007" stroke-miterlimit="10" stroke-width="1.4659797833333332" stroke-dasharray=""/><g><text fill="black" stroke="none" font-family="sans-serif" font-size="11pt" font-style="normal" font-weight="normal" text-decoration="normal" x="407.09436002754165" y="395.286788778" text-anchor="start" dominant-baseline="alphabetic" xml:space="preserve">Conclui desafio</text></g><g><g><rect fill="white" stroke="none" x="394.4869338908749" y="432.2294793180001" width="261.21502722" height="22.86928462"/></g><text fill="black" stroke="none" font-family="sans-serif" font-size="11pt" font-style="normal" font-weight="normal" text-decoration="normal" x="397.12569750087494" y="448.0620609780001" text-anchor="start" dominant-baseline="alphabetic" xml:space="preserve">{nC, nD, Alice, Charles, David}sk(Bob)</text></g><g><path fill="none" stroke="black" paint-order="fill stroke markers" d=" M 373.67002096754163 455.09876393800005 L 662.0349937748749 455.09876393800005" stroke-miterlimit="10" stroke-width="1.4659797833333332" stroke-dasharray=""/><g transform="translate(676.5188740342082,455.09876393800005) translate(-676.5188740342082,-455.09876393800005)"><path fill="black" stroke="none" paint-order="stroke fill markers" d=" M 661.8590762008749 447.7688650213334 L 676.5188740342082 455.09876393800005 L 661.8590762008749 462.4286628546667 Z"/></g></g><path fill="white" stroke="black" paint-order="fill stroke markers" d=" M 676.5188740342082 496.43939382800005 L 685.3147527342082 496.43939382800005 M 685.3147527342082 476.2088728180001 L 821.3001269504583 476.2088728180001 L 837.1327086104583 492.0414544780001 L 837.1327086104583 516.6699148380001 L 685.3147527342082 516.6699148380001 L 685.3147527342082 476.2088728180001 M 821.3001269504583 476.2088728180001 L 821.3001269504583 492.0414544780001 L 837.1327086104583 492.0414544780001" stroke-miterlimit="10" stroke-width="1.4659797833333332" stroke-dasharray=""/><g><text fill="black" stroke="none" font-family="sans-serif" font-size="11pt" font-style="normal" font-weight="normal" text-decoration="normal" x="709.9432130942082" y="500.83733317800005" text-anchor="start" dominant-baseline="alphabetic" xml:space="preserve">Conclui desafio</text></g><g><g><rect fill="white" stroke="none" x="724.0179158637916" y="537.780023718" width="233.705261595" height="22.86928462"/></g><text fill="black" stroke="none" font-family="sans-serif" font-size="11pt" font-style="normal" font-weight="normal" text-decoration="normal" x="726.6566794737915" y="553.612605378" text-anchor="start" dominant-baseline="alphabetic" xml:space="preserve">{nD, Alice, Bob, David}sk(Charles)</text></g><g><path fill="none" stroke="black" paint-order="fill stroke markers" d=" M 676.5188740342082 560.6493083380001 L 990.7383390290415 560.6493083380001" stroke-miterlimit="10" stroke-width="1.4659797833333332" stroke-dasharray=""/><g transform="translate(1005.2222192883748,560.6493083380001) translate(-1005.2222192883748,-560.6493083380001)"><path fill="black" stroke="none" paint-order="stroke fill markers" d=" M 990.5624214550415 553.3194094213334 L 1005.2222192883748 560.6493083380001 L 990.5624214550415 567.9792072546668 Z"/></g></g><path fill="white" stroke="black" paint-order="fill stroke markers" d=" M 1005.2222192883748 601.9899382280001 L 1014.0180979883748 601.9899382280001 M 1014.0180979883748 581.7594172180001 L 1150.0034722046248 581.7594172180001 L 1165.8360538646248 597.591998878 L 1165.8360538646248 622.2204592380001 L 1014.0180979883748 622.2204592380001 L 1014.0180979883748 581.7594172180001 M 1150.0034722046248 581.7594172180001 L 1150.0034722046248 597.591998878 L 1165.8360538646248 597.591998878" stroke-miterlimit="10" stroke-width="1.4659797833333332" stroke-dasharray=""/><g><text fill="black" stroke="none" font-family="sans-serif" font-size="11pt" font-style="normal" font-weight="normal" text-decoration="normal" x="1038.6465583483748" y="606.3878775780001" text-anchor="start" dominant-baseline="alphabetic" xml:space="preserve">Conclui desafio</text></g></g><g/><g/><g/><g/></g></svg>